<?xml version="1.0" encoding="utf-8"?>
<!-- Generator: Adobe Illustrator 21.1.0, SVG Export Plug-In . SVG Version: 6.00 Build 0)  -->
<svg version="1.1" id="圖層_1" xmlns="http://www.w3.org/2000/svg" xmlns:xlink="http://www.w3.org/1999/xlink" x="0px" y="0px"
	 viewBox="0 0 550 150" style="enable-background:new 0 0 550 150;" xml:space="preserve">
<style type="text/css">
	.st0{fill:#003E7E;}
	.st1{fill:#231815;}
	.st2{fill:url(#SVGID_1_);}
	.st3{fill:url(#SVGID_2_);}
	.st4{fill:#0E8A41;}
	.st5{fill:#CB191D;}
	.st6{fill:#FFFFFF;}
</style>
<path class="st0" d="M24,56.4c-0.1-1-0.1-1.4-0.2-2.8c1.4,0.1,2.8,0.2,4.3,0.2c0.8-2.1,1.4-4.3,1.7-6.5l9,1
	c-0.6,1.9-1.3,3.8-2.1,5.6h0.6c1.7,0.1,3.3,0,5-0.2c-0.1,1.3-0.2,2.7-0.2,4l2.3-3.8c0.6,0.6,0.6,0.6,1.2,1.2c1.4-2.4,2.4-5,3-7.7
	l6.4,2.8c-0.1,0.3-0.3,0.6-0.4,0.9c-0.1,0.1-0.1,0.3-0.3,0.6c-1.3,2.8-2.9,5.6-4.6,8.2c0.8,1,0.8,1.1,1.3,1.7c1.7-2.5,3.1-5.2,4.2-8
	l6.1,3.3c-0.2,0.3-0.9,1.4-2.2,3.5s-2.5,3.8-4.5,6.6l4.5-1.5c1.6,4,2.9,8.1,3.7,12.3l-6.2,2.1c-0.1-1.3-0.2-1.7-0.3-2.8
	c-2.7,0.6-5.8,1.1-10.1,1.6c-0.8,0.1-1.6,0.2-2.4,0.4L42,71.6v1.7c0,2.5,0.1,4.1,0.2,5.5c-1.4-0.1-2.6-0.2-4.6-0.2v3.1h15.7
	c2.6,0.1,5.2-0.1,7.8-0.4v8.9c-2.6-0.3-5.2-0.4-7.8-0.4h-9.7c5.3,3.5,11.2,5.7,18.9,7.1c-1.9,2.6-3.6,5.4-5,8.3
	c-8.5-2.2-15-5.8-20-11c0.1,1.9,0.1,3,0.1,3.6v2c0,2,0.1,3.9,0.5,5.9H27.7c0.4-2,0.5-3.9,0.5-5.9V98c0-0.7,0-1.2,0.1-3.6
	c-2.4,2.7-5.3,4.9-8.5,6.6c-3.4,1.8-6.9,3.2-10.6,4.2c-1.4-2.9-3.2-5.6-5.4-8c8.2-1.7,13.8-3.9,18.4-7.3H13c-2.6,0-5.2,0.1-7.8,0.4
	v-9c2.6,0.4,5.3,0.5,7.9,0.5h15.2v-3.1c-1.7,0.1-2.7,0.1-3.8,0.1l-4.3,1.9c-0.3-1.7-0.3-2.2-0.6-3.7c-3,0.6-6.4,1.1-9.3,1.4
	c-1.6,0.1-3.3,0.4-4.9,0.8l-1.6-7.9c0.9,0.1,1.9,0.2,2.9,0.2h0.8c1.7-2.1,2.2-2.7,3.2-4.1c-1.9-2.6-4.2-5-6.6-7.1L8,53.7
	c0.5,0.4,0.9,0.9,1.3,1.4c1.3-2.5,2.4-5.1,3-7.8l6.4,2.9c-1.5,3.4-3.2,6.7-5.3,9.8c0.5,0.6,0.6,0.9,1.2,1.6c1.6-2.3,2.8-4.7,3.8-7.2
	c0.1-0.3,0.1-0.3,0.3-0.8L24,56.4z M14.8,71.2c1.3-0.1,1.9-0.2,3.3-0.4c-0.3-0.9-0.6-1.8-0.9-2.7C16.3,69.4,16,69.9,14.8,71.2z
	 M24,58.1c-1.8,3.1-3.8,6.2-5.9,9.1l3.9-1.4c0.8,2.1,1.4,4.2,2,6.3V58.1z M31,63.2h3.9v-3H31V63.2z M31,72.4h3.9v-3.1H31V72.4z
	 M42,71.4c1.2,0.1,1.2,0.1,1.6,0.1c2.1-2.5,2.1-2.5,3.5-4.3c-1.6-2-3.3-3.9-5.1-5.7V71.4z M50.9,71.2c2-0.1,2.4-0.1,3.8-0.3
	c-0.3-1.1-0.6-2.1-1-3.2C52.9,69,51.9,70.1,50.9,71.2z"/>
<path class="st0" d="M99.3,82.7c0-0.3,0-0.3,0.1-1.7l0.1-1.6v-9.5c-1.7,2.5-3,5.2-3.9,8c-2.1-1.6-4-3.5-5.6-5.6
	c0.1,2.2,0.1,4.1,0.1,5v2c0,1.5,0,2.9,0.3,4.4h-9.7c0.2-1.4,0.3-2.8,0.3-4.3v-1.8c0-1,0.1-2.8,0.2-4.6c-1.9,3.2-4.2,6-6.9,8.5
	c-1.4-2.9-3-5.7-5-8.2c4.4-2.6,7.9-6.4,10.1-10.9h-1.8c-2.1,0-4.3,0-6.4,0.3v-9c2.2,0.3,4.4,0.4,6.6,0.3H81v-1.8
	c0-1.4-0.1-2.9-0.3-4.3h9.7c-0.2,1.6-0.3,3.1-0.3,4.7V54h2.3c1.9,0,3.7-0.1,5.6-0.3v9c-1.8-0.2-3.6-0.3-5.4-0.3h-1.5
	c2.1,3.1,5,5.5,8.4,7V54.8c0-1.8-0.1-3.6-0.3-5.5c1.9,0.2,3.7,0.3,5.6,0.3h15.6c1.8,0,3.7-0.1,5.5-0.3c-0.2,1.8-0.3,3.6-0.3,5.5
	v22.8c0,2,0.1,3.9,0.3,5.9c-1.1-0.1-1.5-0.1-2-0.1c-1,0-1.9,0-2.8-0.1h-16c1.8,2.1,3.4,4.3,4.9,6.6l-2,1.2c2.4,0.9,4.9,1.5,7.4,1.7
	c-0.9-1.7-1.5-2.6-3.1-5.1l8.1-3.8c3.3,4.6,6.2,9.6,8.6,14.7l-8.5,4.9c-1.3-3.3-2.8-6.4-4.5-9.5c-0.4,5.5-1.1,8-2.9,9.5
	s-5,1.9-13.1,1.9c-5.4,0-7.9-0.1-9.8-0.6c-3.9-0.9-5.1-2.3-5.1-6.3V91c0.1-2,0-4-0.3-6h9.9c-0.2,2-0.3,4-0.3,6v4
	c0,1.6,0.7,1.8,6.2,1.8c5.8,0,6.1-0.2,6.3-5.3l-5,2.8c-1.8-3.5-4-6.8-6.5-9.8L99.3,82.7z M69.8,98.6c3.3-4.6,4.4-7.4,5.9-14.2l8,3.7
	c-1.9,7.7-2.6,9.9-5.9,16.2L69.8,98.6z M108.4,59.5h8.3V57h-8.3V59.5z M108.4,67.8h8.3v-2.4h-8.3V67.8z M108.4,76h8.3v-2.4h-8.3V76z
	"/>
<path class="st0" d="M183.4,54.6c2.7,0.1,5.3-0.1,8-0.4v9.6c-2.6-0.3-5.2-0.4-7.9-0.3h-12.4v6.2h15.4c2.7,0,5.3-0.1,8-0.4V79
	c-2.7-0.3-5.3-0.4-8-0.4h-11.2c2,2.6,4.2,5.1,6.7,7.2c4.3,3.8,8.3,6.1,14.7,8.8c-2.2,2.9-4.1,6.1-5.6,9.5
	c-9.2-5.1-15.1-10.2-20.2-17.4c0.1,3.2,0.2,4.8,0.2,5.1v6.8c0,2.4,0.1,4.8,0.4,7.2H161c0.3-2.4,0.5-4.7,0.4-7.1v-6.6
	c0-1.2,0.1-3.7,0.2-5.2c-2.4,3.6-5.2,6.8-8.5,9.6c-3.2,2.8-6.6,5.2-10.3,7.3c-1.5-3.3-3.4-6.3-5.8-9c5.5-2.4,10.5-5.7,14.8-9.8
	c2.1-1.9,4-4.1,5.6-6.4h-10.2c-2.7-0.1-5.3,0.1-8,0.4v-9.7c2.7,0.3,5.3,0.4,8,0.4h14.2v-6.2h-10.9c-2.7-0.1-5.4,0-8.1,0.3v-9.6
	c2.7,0.3,5.3,0.5,8,0.4h11v-1c0-1.9-0.1-3.9-0.3-5.8h10.3c-0.2,2-0.3,3.9-0.3,5.9v1L183.4,54.6z"/>
<path class="st0" d="M229.2,61.8h-14.5c-2.7,0-5.4,0.1-8.1,0.4v-9.3c2.7,0.3,5.4,0.4,8.1,0.4h14.5v-0.7c0-1.6-0.1-3.2-0.4-4.8h10.6
	c-0.3,1.6-0.4,3.2-0.4,4.8v0.8h15.5c2.8,0.1,5.5-0.1,8.3-0.4v9.4c-2.7-0.3-5.4-0.4-8.2-0.4H239v16.3c2.8,4.3,6.4,8.1,10.6,11
	c4.4,3.2,9.4,5.6,14.6,7.2c-2.3,2.8-4,5.9-5.1,9.3c-3.9-1.8-7.6-3.9-11.1-6.5c-3.4-2.4-6.5-5.3-9.2-8.6c0.1,3.3,0.1,3.3,0.1,4.3v5.4
	c0,2,0.1,3.9,0.4,5.9h-10.6c0.3-1.9,0.4-3.9,0.4-5.9V95c0-1,0.1-2.5,0.1-4.2c-2.7,3.3-5.8,6.2-9.3,8.7c-3,2.3-6.3,4.2-9.7,5.9
	c-1.3-3.2-3-6.2-5.1-8.8c4.7-1.6,9.1-3.9,13.1-6.8c4.4-3,8.1-7,10.8-11.6v-1.4c-0.9,0.9-1.2,1.1-2.7,2.7c-0.7,0.7-1.4,1.5-2,2.3
	c-0.6,0.7-0.7,0.8-1.2,1.4c-1.6-1.6-3.1-3.4-4.3-5.3c-1.7,3.5-3.9,6.8-6.6,9.7c-1.9-2.5-4.2-4.7-6.9-6.5c5.2-4.6,9.3-12.6,9.6-18.9
	l9,1.8c-0.3,0.6-0.5,1.2-0.6,1.9c-0.6,1.9-0.7,2.4-1.1,3.7c1.7,2.7,4,5,6.8,6.6L229.2,61.8z M255.4,63.8c-0.2,0.4-0.7,2.1-1.6,4.9
	c1,1.7,2.2,3.3,3.6,4.8c1.8,2,4,3.8,6.4,5.1c-2.1,2.4-3.7,5.2-4.9,8.1c-3.3-2.6-6.1-5.8-8.2-9.4c-1,2.5-2.2,4.8-3.8,7
	c-2.1-2.2-4.4-4.1-7.1-5.6c1.5-1.6,2.7-3.5,3.5-5.6c1.6-3.4,2.7-7.1,3.1-10.9L255.4,63.8z"/>
<path class="st0" d="M298.3,80.2c-2.6,0-4.8,0.1-7.1,0.3v-8.3c2.3,0.3,4.7,0.4,7.1,0.4h16.1v-2.4h-13.2c-1.9,0-3.8,0.1-5.8,0.3v-7.3
	c1.9,0.2,3.8,0.3,5.8,0.3h13.2v-2.3h-14.3c-3.2,0-4.8,0.1-7.1,0.3v-8.2c2.3,0.3,4.7,0.4,7.1,0.4h5.9c-0.9-1.5-2-3-3.1-4.4l9.2-2.3
	c1.4,2.2,2.7,4.4,3.9,6.7h6.6c1.3-2,2.5-4.2,3.3-6.5l9.4,2.1c-0.9,1.5-1.9,3-2.9,4.4h6.1c2.4,0,4.7-0.1,7.1-0.4v8.2
	c-2-0.2-3.8-0.3-7.1-0.3h-14.8v2.3h13.6c1.9,0,3.8-0.1,5.8-0.3v7.3c-1.9-0.2-3.8-0.3-5.8-0.3h-13.6v2.3h16.6c2.3,0.1,4.7,0,7-0.3
	v8.3c-2.3-0.3-4.7-0.4-7.1-0.3h-16.7c-0.1,1.1-0.2,1.5-0.3,2.4h16.3c2.4,0,4.7,0,7.1-0.3v8.5c-2.6-0.3-5.2-0.4-7.9-0.4h-11.1
	c2.3,2,5.1,3.5,8,4.3c3.8,1.2,7.2,1.7,13,1.9c-1.7,3-2.9,6.3-3.8,9.6c-5.4-0.5-10.7-2-15.5-4.4c-4.1-1.8-7.7-4.5-10.8-7.7
	c-5.2,6.8-12,10.2-24.6,12.1c-0.9-3.2-2.2-6.3-3.9-9.2c10.2-0.9,15.3-2.6,19.4-6.6h-9.8c-2.6,0-5.2,0.1-7.8,0.4v-8.6
	c2.2,0.2,4,0.3,7,0.3h14.7c0.1-0.8,0.2-1.6,0.3-2.4L298.3,80.2L298.3,80.2z"/>
<path class="st0" d="M368.7,60.1c-3.2,0.5-4.3,0.7-7.5,1c-0.7-3-1.6-5.8-2.9-8.6c5.5-0.4,11-1.3,16.4-2.7c4-1,5.8-1.7,7.5-2.7
	l5.5,8.2c-0.3,0.1-0.3,0.1-1.4,0.5c-2.4,0.8-5.6,1.7-8.2,2.3v6.3h3.8c1.7,0,3.4-0.1,5.1-0.3v9.1c-1.7-0.2-3.5-0.3-5.3-0.3h-3.3
	c2.4,3.8,5.6,7,9.4,9.5c-1.7,2.8-3.1,5.7-4.2,8.7c-2.3-2.1-4.2-4.5-5.7-7.1c0.1,1.4,0.2,3.1,0.2,5.1v8.4c-0.1,2.7,0.1,5.4,0.4,8.1
	h-10.1c0.3-2.7,0.4-5.4,0.4-8.1v-7.3c0-1.6,0-3.2,0.1-4.8c-1.6,4.3-4.1,8.2-7.4,11.4c-1.1-3.3-2.6-6.5-4.5-9.5
	c2.3-2,4.3-4.3,5.9-6.9c1.6-2.4,2.9-4.9,3.8-7.6H364c-1.8,0-3.6,0.1-5.5,0.3v-9.2c1.9,0.3,3.7,0.4,5.6,0.3h4.6V60.1z M399,52.5
	c-0.3,2.6-0.4,5.3-0.3,7.9v22.9c-0.1,2.5,0,5,0.3,7.6h-9.8c0.3-2.4,0.4-4.9,0.3-7.3V60.4c0-3.7-0.1-5.7-0.3-7.9H399z M413.3,48.5
	c-0.3,3-0.4,6-0.4,9v39c0,4-1,6.4-3.2,7.6c-1.7,0.9-5.2,1.4-10.7,1.4c-1,0-2-0.1-4.3-0.1c-0.6-3.3-1.5-6.5-2.9-9.6
	c2.8,0.3,5.6,0.5,8.5,0.5c2.7,0,3.3-0.3,3.3-1.9V57.5c0-2.9-0.1-5.9-0.4-9H413.3z"/>
<path class="st0" d="M456.4,48.7c-0.3,1.7-0.4,3.3-0.4,5c0,6.7,1,13.7,2.5,18.3c2.3,6.7,6.3,12.6,11.6,17.2
	c3.2,2.9,6.9,5.3,10.8,7.1c-2.6,2.9-4.8,6.2-6.3,9.8c-6.8-4.2-11.1-7.9-15.1-12.8c-3.8-4.6-6.6-9.8-8.4-15.4
	c-2.7,8.1-5.3,12.8-10.1,17.8c-3.9,4.1-8.4,7.6-13.3,10.3c-1.5-3.4-3.6-6.5-6.3-9.1c9.2-4.6,14.3-9.2,18.1-15.8
	c3.9-6.8,5.9-16.1,5.9-27.5c0-1.6-0.1-3.2-0.3-4.8L456.4,48.7L456.4,48.7z"/>
<path class="st0" d="M502.9,67.7c-2.2,4.6-5.1,9-8.5,12.8c-1.6-3-3.7-5.7-6.2-8c5.7-5.6,10.3-15.4,10.8-23l9.7,2.3
	c-0.7,2.1-0.7,2.1-1.2,3.8c-0.3,1.2-0.6,2.2-1,3.5h7.4v-2.9c0-2.8-0.1-5.5-0.4-8.3h10.6c-0.3,2.8-0.4,5.5-0.4,8.3v2.9h10.8
	c3.7,0,6.7-0.1,9.7-0.4v9.4c-3.1-0.3-6-0.4-9.4-0.4h-11.1l2,9.3h7.1c2.9,0,5.8-0.1,8.7-0.4V86c-2.8-0.3-5.3-0.4-8.6-0.4h-9.2v10.1
	h12.7c3.3,0,6.6-0.1,9.8-0.4v9.6c-3.5-0.3-6.1-0.4-9.5-0.4h-36c-3.5,0-6.6,0.1-10.2,0.4v-9.6c3.3,0.3,6.6,0.5,9.8,0.4h13.6V85.6
	h-7.7c-3.3,0-5.8,0.1-8.5,0.4v-9.3c2.8,0.3,5.5,0.4,8.3,0.3h7.9v-9.3H502.9z"/>
<path class="st1" d="M88,31.3c-1.6,0-3.1,0-4.7,0.2c0.1-1.6,0.4-3.1,0.9-4.6c1.1-2.7,2.8-5.2,5-7.1c1.9-1.6,3.9-3.1,6-4.4
	c3.3-2.3,4.4-3.5,4.4-5.3c0-2.5-1.9-4-5-4C92.8,5.9,91,6.8,90,8.2c-0.7,1-1,2.1-1.1,3.3l-5.2-0.6c0.2-2.1,1.1-4.2,2.5-5.8
	C88,3,90.9,1.9,94.5,1.9c6.4,0,10.3,3.1,10.3,8c0.1,2.2-0.9,4.4-2.6,5.8c-1,0.9-1.4,1.2-6.1,4.5c-1.5,1.1-3,2.3-4.3,3.6
	c-0.9,0.9-1.6,2-2.1,3.3h10.1c1.8,0,3.5-0.1,5.3-0.3v4.8c-1.7-0.2-3.2-0.2-5.5-0.2L88,31.3z"/>
<path class="st1" d="M113.7,29c-1.1-1-1.9-2.3-2.4-3.7c-1-2.7-1.4-5.5-1.4-8.4c0-3.9,0.9-7.8,2.2-10.1c1.9-3.2,5.5-5.1,9.3-5
	c2.8-0.1,5.6,1,7.7,2.9c1.1,1,1.9,2.3,2.4,3.7c1,2.7,1.4,5.6,1.4,8.4c0,4.5-1,8.4-2.7,10.8c-2,2.8-5.4,4.4-8.8,4.3
	C118.5,32,115.7,30.9,113.7,29z M125.3,26.2c1.6-1.7,2.5-5.1,2.5-9.3s-0.9-7.5-2.5-9.3c-1.1-1.1-2.5-1.6-4-1.5
	c-1.6-0.1-3.1,0.6-4.1,1.9c-1.6,1.9-2.4,4.9-2.4,8.8s0.7,7,1.8,8.6c1.9,2.6,5.5,3.1,8.1,1.2C124.9,26.4,125.1,26.3,125.3,26.2
	L125.3,26.2z"/>
<path class="st1" d="M141.9,31.3c0.2-1.6,0.3-3.1,0.3-4.7v-20h-1.7c-1.2,0-2.5,0.1-3.7,0.2V2.2c1.2,0.2,2.4,0.3,3.6,0.2h3.3
	c1.2,0,2.5,0,3.7-0.2c-0.2,2-0.3,4-0.3,6v18.3c0,1.6,0.1,3.2,0.3,4.7L141.9,31.3L141.9,31.3z"/>
<path class="st1" d="M158.4,14.2c-1.2-1.3-1.8-3-1.8-4.8c0-4.7,3.9-7.6,10.1-7.6c4.4,0,7.6,1.4,9.2,4c0.7,1.1,1,2.4,1,3.6
	c0.1,3.2-2.1,6.1-5.2,6.8c3.7,0.4,6.5,3.6,6.5,7.4c0,5.4-4.1,8.4-11.5,8.4c-4.2,0-7.1-0.9-9.2-2.9c-1.4-1.5-2.2-3.4-2.1-5.5
	c-0.1-2.4,1-4.7,3-6c1.1-0.8,2.3-1.3,3.6-1.5C160.6,15.9,159.4,15.2,158.4,14.2z M173.1,23.2c0-3-2.4-4.8-6.3-4.8s-6.4,1.9-6.4,4.9
	s2.3,4.7,6.3,4.7S173,26.2,173.1,23.2L173.1,23.2z M161.5,9.9c0,2.6,2,4.3,5.3,4.3s5.2-1.6,5.2-4.3s-2-4.2-5.3-4.2
	S161.5,7.3,161.5,9.9L161.5,9.9z"/>
<path class="st1" d="M194.3,16.1c-1.3,0-2.7,0-4,0.2v-2.6c-1.3,0.8-2.6,1.5-4,2.1c-0.7-1.4-1.5-2.6-2.4-3.8c3.1-1.2,6.1-2.8,8.8-4.8
	c1.4-1.2,2.8-2.4,4-3.8c0.8-0.8,1.4-1.7,2-2.6h4.6c1.8,2.5,4,4.7,6.5,6.4c2.7,2,5.7,3.5,8.9,4.6c-1,1.3-1.8,2.7-2.3,4.2
	c-1.6-0.8-2.7-1.3-4.3-2.3v2.6c-1.3-0.1-2.6-0.2-3.9-0.2H203v4.1h5.9c1.3,0,2.7,0,4-0.2v4.1c-1.3-0.1-2.7-0.2-4-0.2H203v4.9h9.4
	c1.5,0,3.1-0.1,4.6-0.2v4.3c-1.5-0.2-3-0.3-4.6-0.3h-22.6c-1.5,0-3,0.1-4.5,0.3v-4.3c1.5,0.2,3.1,0.2,4.6,0.2h9v-4.9h-5.3
	c-1.3,0-2.7,0-4,0.2V20c1.3,0.1,2.7,0.2,4,0.2h5.3v-4.1H194.3z M208.4,12.5c0.8,0,1,0,1.7,0c-3.5-2.2-6.5-5-8.9-8.2
	c-2.3,3.3-5.3,6.1-8.7,8.2c0.7,0,1.1,0,1.6,0H208.4z"/>
<path class="st1" d="M226,6c-1,0-2,0-3.1,0.2v-4c1.1,0.2,2.2,0.2,3.3,0.2h5.5c1.1,0,2.2-0.1,3.2-0.2v3.9c-1-0.1-2-0.2-3-0.1h-1.2
	v6.8h0.8c0.8,0,1.6,0,2.4-0.1v3.7c-0.8-0.1-1.6-0.2-2.4-0.1h-0.8v5.9c1.7-0.8,2.2-1.1,3.9-2v3.9c-3.1,1.9-6.3,3.5-9.7,4.9
	c-0.4,0.2-0.9,0.4-1.5,0.7l-1.1-4.2c1.6-0.5,3.1-1,4.6-1.6v-7.5h-1.2c-0.8,0-1.7,0-2.5,0.2v-3.8c0.8,0.1,1.7,0.2,2.5,0.2h1.1V6H226z
	 M242,24.1c-2.2,2.1-4.6,4-7,5.7c-0.5,0.3-0.9,0.7-1.3,1l-2.1-4c3.3-1.6,6.3-3.7,9-6.1L242,24.1z M237.3,10.4
	c-1.1,0-2.2,0.1-3.3,0.2V6.7c1.2,0.1,2.3,0.2,3.5,0.2h5V4.2c0-1.2-0.1-2.5-0.3-3.7h4.2c-0.1,1.1-0.2,2.2-0.2,3.3v3.1h6.2
	c1.2,0,2.4-0.1,3.6-0.2v3.9c-1.1-0.1-2.2-0.2-3.3-0.2h-6.5c0.6,3.2,1.8,6.3,3.5,9.1c1.8,3.2,4.3,6,7.3,8.1c-1,1.2-1.8,2.5-2.4,3.9
	c-2.1-1.6-3.9-3.6-5.3-5.8c-1.6-2.3-2.7-4.9-3.3-7.6c0.2,3.4,0.2,4.3,0.2,5.8v6.8c0,1.5-0.3,2.1-1.3,2.6c-1.2,0.4-2.4,0.6-3.6,0.5
	c-0.8,0-1.6,0-3.3-0.2c-0.1-1.3-0.5-2.6-1.1-3.8c1.4,0.2,2.8,0.3,4.2,0.4c1,0,1.3-0.2,1.3-0.9V10.4H237.3z M238.1,19.7
	c-1-2.4-2.4-4.6-4-6.6l3.2-1.8c1.6,2,2.9,4.1,4,6.4L238.1,19.7z M252.1,6.7c-1.5-1.5-3.1-2.8-4.9-3.9l2.5-2.3
	c1.7,1.1,3.4,2.4,4.9,3.7L252.1,6.7z M248.7,17c1.6-1.7,2.8-3.7,3.7-5.8l3.3,2.1c-1.3,2.2-2.7,4.3-4.3,6.3L248.7,17z"/>
<path class="st1" d="M264.1,15.5c0.9-1.3,1.2-1.6,1.7-2.4c-1.3-2.1-2.9-4-4.7-5.7l1.9-3c0.6,0.6,0.7,0.7,1.2,1.3
	c1.1-1.8,2.1-3.8,2.8-5.8l3.6,1.4c-0.2,0.4-0.5,0.7-0.6,1.1c-1,2-2.2,4-3.4,5.9c0.7,0.9,0.9,1.2,1.4,1.8c1.3-2,2.4-4,3.3-6.2
	l3.3,1.7c-0.3,0.4-0.3,0.4-0.8,1.2c-1.7,3-3.6,5.9-5.7,8.6c1.8-0.1,2.5-0.1,3.7-0.2c-0.3-0.9-0.5-1.3-1.1-2.7l2.4-0.9
	c1.2,2.4,2.1,5,2.7,7.6L273,20c-0.1-0.8-0.2-1-0.4-1.7l-2.1,0.3V30c0,1.3,0,2.6,0.2,3.9h-3.9c0.2-1.3,0.2-2.6,0.2-3.9V18.8
	c-2.1,0.2-3.7,0.3-4,0.3c-0.4,0-0.8,0.1-1.2,0.1l-0.4-3.9c0.6,0.1,1.3,0.1,1.9,0.1L264.1,15.5L264.1,15.5z M265.8,21
	c-0.3,5.5-0.5,7.3-1.5,10.6l-3.2-1.3c1-2.8,1.3-4.8,1.6-9.7L265.8,21z M273.7,20.5c0.8,2.6,1.2,5.2,1.5,7.9l-3,0.8
	c-0.1-2.8-0.5-5.5-1.1-8.2L273.7,20.5z M278.9,23.5c-1.2,0-2.4,0-3.5,0.2v-3.8c1.1,0.2,2.2,0.2,3.3,0.2h11.5c1.1,0,2.2,0,3.3-0.2
	v3.8c-1.1-0.2-2.2-0.2-3.3-0.2H286v5.8h5.3c1.1,0,2.2,0,3.3-0.2v4c-1.1-0.1-2.2-0.2-3.3-0.2h-14c-1.2,0-2.4,0-3.5,0.2v-4
	c1.1,0.1,2.2,0.2,3.3,0.2h5v-5.8H278.9z M281.1,6.9l-0.9,1.9c-0.6,1.3-1.3,2.5-2.1,3.7c1.2,1.7,2.3,3.6,3.2,5.5l-3.2,1.7
	c-1-2.6-2.3-5-3.9-7.2c1.6-2,2.8-4.4,3.4-6.9L281.1,6.9z M294.1,5.3c-1.2-0.1-2.3-0.2-3.5-0.2h-12.3c-1.1,0-2.3,0-3.4,0.2V1.5
	c1.1,0.1,2.3,0.2,3.4,0.2h12.3c1.2,0,2.3,0,3.5-0.2V5.3z M287.2,6.9l-0.4,0.7c0,0.1-0.1,0.3-0.2,0.4c-0.7,1.5-1.5,3-2.4,4.4
	c1.2,1.7,2.3,3.6,3.3,5.5l-3.3,1.7c-0.9-2.6-2.1-5-3.8-7.2c1.4-2.1,2.5-4.4,3.2-6.9L287.2,6.9z M293.5,7c-0.2,0.3-0.3,0.6-0.5,0.9
	c-0.8,1.6-1.6,3.1-2.6,4.5c1.3,1.6,2.5,3.4,3.5,5.2l-3.2,1.9c-1-2.6-2.4-5-4.2-7.1c1.5-2.1,2.7-4.4,3.4-6.8L293.5,7z"/>
<path class="st1" d="M300.5,9.7c2.1,1.1,4,2.5,5.8,4l-2.4,3.2c-1.8-1.7-3.8-3.1-5.9-4.3L300.5,9.7z M306.1,21.7
	c-1,3.3-1.6,5.3-2.5,7.4c-0.3,0.8-0.7,1.7-1.1,2.5c-0.1,0.3-0.1,0.3-0.4,0.9c-0.1,0.3-0.3,0.6-0.3,0.9l-3.5-2.8
	c0.5-0.6,0.9-1.2,1.2-1.9c1.5-2.9,2.7-6,3.5-9.1L306.1,21.7z M316.8,10c-0.2-0.3-0.4-0.7-0.6-1c0,0.5,0,0.5,0,1.4
	c-0.1,2.9-0.5,5.1-1,5.8s-1.4,1-3,1h-0.9c0-0.9-0.2-1.8-0.5-2.7c-0.7,1.3-1.7,2.4-2.8,3.3c-0.6-0.9-1.3-1.6-2.1-2.2
	c2.2-1.4,3-2.6,3.3-4.8c-0.6,0-1.2,0-1.9,0.1V7.8c0.8,0.1,1.6,0.2,2.4,0.1h5.9c-0.3-0.4-0.6-0.7-0.9-1.1l1.5-0.8h-5.7
	c-1.1,0-2.3,0-3.4,0.2V5.7L305,8.2c-1.7-1.8-3.6-3.3-5.7-4.5l2.5-2.7c1.9,1.1,3.7,2.4,5.3,3.8V2.7c1.2,0.2,2.5,0.2,3.7,0.2h6.4V2.4
	c0-0.8-0.1-1.6-0.2-2.4h4.3c-0.2,0.8-0.2,1.6-0.2,2.5v0.4h6.8c1.3,0,2.6-0.1,3.9-0.2v3.6c-1.1-0.2-2.3-0.2-3.5-0.2H322l1.8,0.9
	c-0.5,0.8-0.7,1.1-1.3,1.9c1.7-0.3,3.4-0.8,5-1.5c0.6-0.2,1.2-0.6,1.7-1l2,2.6l-0.8,0.4c-0.8,0.4-1.1,0.5-1.6,0.8
	c0.4,1,0.9,2,1.5,2.9c0.7,0.8,1.5,1.5,2.4,2c-0.9,0.7-1.6,1.6-2,2.7c-1.3-0.9-2.3-2.1-3.1-3.5v2c-1.6,0.5-2.6,0.7-3.8,1
	c-0.7,0.1-1.4,0.3-2.1,0.6l-0.5-2.9c0.4,0,0.8-0.1,1.2-0.1v-3.2c0-0.8,0-1.6-0.1-2.4c-0.9,1.2-1.2,1.4-2,2.4v4.1c0,0.7,0,1.3,0.1,2
	h-3.1c0.1-0.7,0.1-1.3,0.1-2v-3.7c0-0.6,0-1.2-0.1-1.9h0.7c1.2-1.1,2.1-2.4,2.8-3.9H317c0.7,0.7,1.3,1.5,1.8,2.4L316.8,10z
	 M325,19.4c0-0.5,0-1.1-0.1-1.6h4.1c-0.1,1.1-0.2,2.2-0.1,3.3v9.4c0,1.3,0.1,2.5,0.2,3.6H325c0.2-1.1,0.2-2.3,0.2-3.4V28h-12.9
	c-0.7,2.4-2.1,4.6-4,6.3c-0.8-1.1-1.9-2.1-3-2.9c1.7-1.2,2.9-2.9,3.6-4.8c0.6-2.1,0.8-4.4,0.8-6.6c0-0.7,0-1.4-0.1-2.1h4
	c0,0.5-0.1,0.9-0.1,1.6L325,19.4z M312,10.8c-0.2,1.2-0.5,2.4-1.1,3.5c0.5,0.1,0.9,0.1,1.4,0.1c0.8,0,0.9-0.4,1.1-3.6L312,10.8z
	 M313,22.7c0,0.7-0.1,1.3-0.2,2H325v-2H313z M325.4,14c0.9-0.2,0.9-0.2,2.1-0.6c-0.4-0.9-0.8-1.8-1.1-2.7c-0.3,0.1-0.7,0.2-1,0.3V14
	z"/>
<path class="st1" d="M365.4,23.9c-1,0.8-1,0.9-1.6,1.3c-0.9,0.9-1.9,1.8-3,2.5c2.4,1.3,5,2.1,7.8,2.5c-1,1.1-1.8,2.3-2.3,3.7
	c-4.9-1.5-7.8-2.9-10.8-5.6v2.8c-2.9,0.7-6.5,1.4-12.9,2.5c-0.6,0.1-0.8,0.2-1.4,0.3l-0.6-4.1h0.6c0.8,0,1.9-0.1,3.7-0.3v-7.1h-3.7
	c-0.4,4.1-1.7,8.2-3.8,11.7c-1-1.2-2.1-2.3-3.3-3.3c1.4-2.1,2.3-4.5,2.8-7c0.9-5.5,1.3-11.1,1.1-16.7c0.1-1.9,0-3.9-0.2-5.8
	c1.6,0.1,3.2,0.2,4.8,0.2h19.7c1.4,0,2.8,0,4.2-0.1c-0.1,1-0.1,1.9-0.1,3.2v2.8c0,1.1,0,2.1,0.1,3.2c-1.2-0.1-2.5-0.1-4-0.1h-2.1
	v2.4h2.1c1.2,0,2.4,0,3.6-0.1v3.6c-1.2-0.1-2.4-0.2-3.6-0.2h-2V19h3.2c1.4,0,2.7,0,4.1-0.2v3.7c-1.2-0.1-2.5-0.2-4-0.2h-1.6
	L365.4,23.9z M347.3,10.9v-0.4h-5.5c0,4-0.1,6.1-0.3,8.6h5.8v-2.8h-1.4c-1,0-2.1,0-3.1,0.1v-3.6c1,0.1,2.1,0.2,3.1,0.1h1.4V10.9z
	 M362.6,7.4V4.9h-20.7v2.5H362.6z M348.7,22.4V29c2.1-0.3,2.6-0.4,6.2-1.1c-1.6-1.5-2.9-3.4-3.7-5.5H348.7z M356.7,12.9v-2.4H351
	v2.4H356.7z M356.7,19v-2.8H351V19H356.7z M355.1,22.4c0.7,1.3,1.6,2.5,2.8,3.4c1.3-1,2.5-2.1,3.6-3.4H355.1z"/>
<path class="st1" d="M386.6,16c2.5-2.6,4-7.3,4-12.7c0-0.7-0.1-1.4-0.2-2.1c1.3,0.1,2.7,0.2,4,0.2h6.5c1.3,0,2.7,0,4-0.2
	c-0.1,0.9-0.2,1.8-0.1,2.7c-0.1,2.8-0.4,7.4-0.6,9.2c-0.2,2-0.7,3.3-1.4,4s-1.9,1-4.1,1c-0.5,0-0.8,0-2.6-0.1c0-1.2-0.2-2.3-0.7-3.4
	c1,0.2,2,0.3,3,0.3c1.4,0,1.7-0.2,1.9-1.6h-7.7c-0.7,2.1-1.9,4.1-3.6,5.7h10.4c1.4,0,2.7,0,4.1-0.2v3.6c-1.4-0.2-2.7-0.2-4.1-0.2
	h-8.9V24h7.1c1.2,0.1,2.5,0,3.7-0.2v3.6c-1.2-0.1-2.4-0.2-3.7-0.2h-7.1v2.3H401c1.4,0,2.7,0,4.1-0.2V33c-1.5-0.2-3-0.2-4.5-0.2
	h-23.5c-1.5,0-3,0.1-4.5,0.2v-3.7c1.3,0.2,2.7,0.3,4.1,0.2h10v-2.3h-6.5c-1.2,0-2.5,0-3.7,0.2v-3.6c1.2,0.2,2.5,0.2,3.7,0.2h6.5
	v-1.8h-8.3c-1.4-0.1-2.7,0-4.1,0.2v-3.6c1.3,0.2,2.7,0.2,4.1,0.2h10c-0.8-0.9-1.8-1.6-2.8-2.1c0.4-0.4,0.6-0.5,0.8-0.8
	c-2.1,0.2-3.9,0.3-5.4,0.3c-4.6,0-5.9-0.6-5.9-3V7c-0.8,0-1.6,0.1-2.4,0.2V3.4c1.1,0.1,2.3,0.2,3.5,0.2h3V3c0-0.9-0.1-1.8-0.2-2.7
	h4.2C383,1.2,382.9,2.1,383,3v0.7h2.4c1.2,0,2.3,0,3.5-0.2v3.8c-1.1-0.1-2.3-0.2-3.5-0.2h-6.5V12c0,0.9,0.3,1,2.8,1
	c1.7,0,3.3-0.2,5-0.4L386.6,16z M393.9,9c-0.1,0.8-0.2,1.1-0.4,1.7h7.2c0.1-0.8,0.1-0.8,0.1-1.7H393.9z M401,4.8h-6.7
	c0,0.8-0.1,1-0.1,1.6h6.7L401,4.8z"/>
<path class="st1" d="M425.1,10.5c-1,0.7-2.1,1.4-3.2,2c-0.5-1-1.1-1.9-1.9-2.8c-0.7-0.1-1.4-0.1-2.1-0.1h-5.7c-0.9,0-1.9,0-2.8,0.1
	V6.2c0.9,0.1,1.9,0.2,2.8,0.2h5.5c0.9,0,1.9,0,2.8-0.1v2.3c1.9-1,3.7-2.3,5.3-3.8c1.3-1.2,2.4-2.6,3.2-4.3h4.6c1,1.8,2.3,3.3,4,4.4
	c1.9,1.6,4.1,2.8,6.5,3.5c-0.8,1.2-1.4,2.6-1.8,4c-1.3-0.6-2.6-1.4-3.8-2.1v2.3c-0.8-0.1-1.5-0.1-3-0.1H428c-1.5,0-2.1,0-3,0.1
	L425.1,10.5z M413.9,33.8h-3.6c0.1-1.2,0.2-2.3,0.2-3.5v-5.4c0-1,0-2-0.2-3c0.9,0.1,1.7,0.1,2.6,0.1h4.9c0.8,0,1.5,0,2.3-0.1
	c-0.1,0.9-0.1,1.9-0.1,2.8v6c0,0.9,0,1.7,0.1,2.6h-3.3v-1.2h-2.9V33.8z M410.5,1.2c1,0.1,2,0.2,2.9,0.1h3.8c1,0,2,0,3-0.1v3.4
	c-1-0.1-2-0.2-2.9-0.1h-3.9c-1,0-2,0-2.9,0.1V1.2z M410.7,11.6c0.8,0.1,1.6,0.1,2.3,0.1h4.6c0.8,0,1.5,0,2.3-0.1v3.3
	c-0.7-0.1-1.5-0.1-2.3-0.1H413c-0.8,0-1.6,0-2.3,0.1V11.6z M410.7,16.8c0.8,0.1,1.6,0.1,2.3,0.1h4.6c0.8,0,1.5,0,2.3-0.1v3.3
	c-0.8-0.1-1.6-0.1-2.3-0.1H413c-0.8,0-1.5,0-2.3,0.1V16.8z M413.8,29h3.1v-4h-3.1V29z M425.3,25.1v5.4c0,1.1,0,2.2,0.2,3.3h-3.9
	c0.2-1.1,0.2-2.2,0.2-3.3V18.1c0-1.2,0-2.4-0.1-3.6c1.1,0.1,2.3,0.2,3.4,0.1h13.6c1.2,0,2.4,0,3.6-0.1c-0.1,1.2-0.2,2.4-0.1,3.6
	v12.2c0,2.7-1,3.3-4.9,3.3c-0.1-2-0.3-2.7-0.9-3.6c0.5,0,1,0.1,1.5,0.1c0.7,0,0.8-0.1,0.8-0.7v-4.1h-2.4v4.1c0,1.5,0,2.7,0.1,3.7
	H433c0.1-1.2,0.2-2.5,0.1-3.7v-4.1h-2.2v4.2c0,1.2,0,2.5,0.1,3.7h-3.5c0.1-1.2,0.2-2.4,0.1-3.7v-4.2L425.3,25.1z M427.6,17.8h-2.3
	v4.1h2.3V17.8z M435.6,9.2h1.4c-2.1-1.5-3.9-3.3-5.4-5.4c-1.3,2.1-2.9,3.9-4.8,5.4H435.6z M433,21.9v-4.1h-2.2v4.1H433z M438.5,21.9
	v-4.1h-2.4v4.1H438.5z"/>
<path class="st1" d="M450.4,4.7c0-1.4-0.1-2.7-0.2-4.1h4.1c-0.2,1.3-0.2,2.7-0.2,4.1v4.9h0.3c0.9,0,1.7,0,2.6-0.1v3.8
	c-0.8-0.1-1.7-0.2-2.5-0.1h-0.3V23c1.3-0.6,1.7-0.8,3.3-1.6l0.1,3.7c-2.6,1.3-2.6,1.3-9.2,4.1c-0.4,0.1-0.8,0.3-1.1,0.5l-0.8-4.3
	c1.3-0.2,2.6-0.6,3.9-1.1V13.2h-0.9c-0.9,0-1.8,0-2.7,0.2V9.5c0.9,0.1,1.8,0.2,2.7,0.2h0.9L450.4,4.7L450.4,4.7z M480.4,33.1
	c-1.4-0.1-2.7-0.2-4.1-0.2h-16.6c-1.4,0-2.8,0.1-4.1,0.2v-3.5c1.3,0.1,2.6,0.2,3.9,0.2h17c1.3,0,2.6,0,3.9-0.2L480.4,33.1z
	 M476.4,2.6c1.3,0,2.6-0.1,3.9-0.2v3.3c-1.2-0.1-2.4-0.2-3.6-0.2h-16.6c-1.2,0-2.5,0-3.7,0.2V2.4c1.3,0.2,2.6,0.2,3.9,0.2h6V2.2
	c0-0.7-0.1-1.4-0.2-2.1h4.1c-0.1,0.7-0.2,1.4-0.2,2.1v0.4H476.4z M478.8,15c0,1.6,0.1,2.7,0.1,3.2c-1-0.1-1.7-0.1-3-0.1h-15
	c-1.2,0-2,0-3,0.1c0.1-0.9,0.1-1.5,0.1-2.9V9.2c0-1.3,0-1.9-0.1-2.8c0.7,0.1,1.6,0.1,3,0.1h15c1.3,0,2.3,0,2.9-0.1
	c-0.1,0.9-0.1,1.6-0.1,2.9L478.8,15z M462,28.8c-1,0-2,0-3,0.1c0.1-0.9,0.1-1.8,0.1-2.7v-4.6c0-1.1,0-1.9-0.1-2.7
	c0.9,0.1,1.8,0.1,3,0.1h12.6c1.3,0,2.3,0,3.1-0.1c-0.1,0.9-0.1,1.8-0.1,2.7v4.6c0,0.9,0,1.8,0.1,2.7c-1-0.1-2.1-0.1-3.1-0.1H462z
	 M475.2,15.6V9h-13.8v6.5L475.2,15.6z M462.6,22.7h11.2v-1h-11.2V22.7z M462.6,26.1h11.2V25h-11.2V26.1z M463,11.6
	c0-0.7,0-1.2-0.1-1.7c0.4,0,1,0.1,1.9,0.1h6.7c0.7,0,1.3,0,2-0.1c0,0.4-0.1,0.9-0.1,1.7V13c0,0.7,0,1.2,0.1,1.7
	c-0.4,0-1-0.1-1.9-0.1h-6.7c-0.9,0-1.5,0-1.9,0.1c0-0.5,0.1-1,0.1-1.7L463,11.6z M466.1,12.7h4.1v-0.9h-4.1V12.7z"/>
<path class="st1" d="M272.9,135.4c-0.7,0.3-1.3,0.6-2,0.9v-5h1.9c0.2,0,0.3-0.1,0.3-0.3v-1.1c0-0.2-0.1-0.3-0.3-0.3h-1.9v-4.2
	c0-0.2-0.1-0.3-0.3-0.3h-1.9c-0.2,0-0.3,0.1-0.3,0.3v4.2H266c-0.2,0-0.3,0.1-0.3,0.3v1.1c0,0.2,0.1,0.3,0.3,0.3l0,0h2.5v5.8
	c-0.9,0.3-1.8,0.5-2.7,0.8c-0.1,0-0.1,0.1-0.1,0.1l0,0l0.7,1.6c0.1,0.1,0.1,0.2,0.3,0.1c0.6-0.2,1.1-0.4,1.8-0.7v3.9
	c0,0.6-0.1,1-1.1,1h-1c-0.1,0-0.1,0-0.1,0.1v1.2c0,0.1,0.1,0.2,0.2,0.2h1.6c2.6,0,2.9-0.3,2.9-2.4v-5c0.8-0.4,1.6-0.8,2.3-1.2
	c0.1-0.1,0.1-0.1,0.1-0.2l-0.2-1.1C273,135.4,273,135.4,272.9,135.4C273,135.4,273,135.4,272.9,135.4z M274.9,132.7L274.9,132.7h0.1
	c0.5-0.3,3.5-2.4,3.5-4.6V127c0-0.2,0.1-0.2,0.2-0.2h3.5c0.2,0,0.3,0.1,0.3,0.2l0,0v3.3c-0.1,0.6,0.1,1.2,0.4,1.7
	c0.4,0.4,1.9,0.4,2.4,0.4h2.3c0.1,0,0.2-0.1,0.2-0.2l0,0v-1.7v-0.1l0,0h-2.2c-0.5,0-0.5,0-0.5-0.7v-4.4c0-0.1-0.1-0.2-0.1-0.3
	c-0.1-0.1-0.2-0.1-0.3-0.1h-8.2c-0.1,0-0.2,0-0.3,0.1c-0.1,0.1-0.1,0.2-0.1,0.3v2.4c-0.1,1.4-0.8,2.7-2,3.5l-0.3,0.2v0.1
	L274.9,132.7z M288.3,144.2L288.3,144.2l-0.4-0.1c-1.9-0.6-3.7-1.6-5.3-2.7c2.2-1.8,4-4.2,5.1-6.8c0,0,0.5-1.3-1.2-1.3h-11.3
	c-0.2,0-0.3,0.1-0.3,0.3v1.3c0,0.2,0.1,0.3,0.3,0.3h9.6c-1,1.8-2.3,3.5-3.9,4.9c-1.3-1.2-2.5-2.5-3.4-4h-2.2c-0.2,0-0.3,0.1-0.3,0.3
	l0,0c0,0.1,0,0.1,0.1,0.2c1.1,1.9,2.5,3.5,4.2,4.9c-1.6,1.2-3.4,2.1-5.3,2.7l-0.4,0.1l0,0v0.1l0.7,1.2l0,0h0.1l0.5-0.1l0,0
	c2.2-0.6,4.3-1.6,6.2-2.8c1.9,1.2,4,2.2,6.1,2.8l0,0l0.5,0.1h0.1l0,0L288.3,144.2C288.3,144.3,288.3,144.3,288.3,144.2z"/>
<path class="st1" d="M313.7,138.1h-10.3c-0.7,0-1.2,0.6-1.2,1.2l0,0v5c0,0.7,0.6,1.2,1.2,1.2l0,0h10.3c0.7,0,1.2-0.6,1.2-1.2l0,0v-5
	C315,138.7,314.4,138.1,313.7,138.1L313.7,138.1z M312.2,143.8H305v-4h7.3L312.2,143.8L312.2,143.8z M301.1,124.8h-2.7
	c-0.8,1-2.1,3.7-5,4.9l0,0l-0.1,0.1l0,0v1.2c0,0-0.1,0.5,0.4,0.3c0.9-0.3,1.7-0.7,2.6-1.1v14c0,0.7,0.6,1.3,1.3,1.3l0,0h1.2
	c0.2,0,0.3-0.1,0.3-0.3l0,0v-17.1c0.8-0.9,1.6-1.9,2.2-3C301.4,124.8,301.1,124.9,301.1,124.8L301.1,124.8z M303.5,132.3h10.3
	c0.1,0,0.2-0.1,0.2-0.2l0,0v-1.3c0-0.1-0.1-0.2-0.2-0.2l0,0h-10.3c-0.1,0-0.2,0.1-0.2,0.2l0,0v1.3
	C303.2,132.2,303.3,132.3,303.5,132.3C303.4,132.4,303.4,132.4,303.5,132.3L303.5,132.3z M303.2,135.8c0,0.1,0.1,0.2,0.2,0.2l0,0
	h10.3c0.1,0,0.2-0.1,0.2-0.2l0,0v-1.3c0-0.1-0.1-0.2-0.2-0.2l0,0h-10.3c-0.1,0-0.2,0.1-0.2,0.2l0,0V135.8z M315.6,126.8h-5.8v-1.7
	c0-0.2-0.1-0.3-0.3-0.3h-1.9c-0.2,0-0.3,0.1-0.3,0.3v1.7h-5.8c-0.1,0-0.2,0.1-0.2,0.2l0,0v1.3c0,0.1,0.1,0.2,0.2,0.2l0,0h14.1
	c0.1,0,0.2-0.1,0.2-0.2l0,0V127C315.8,127,315.8,126.9,315.6,126.8L315.6,126.8z"/>
<path class="st1" d="M231,125.1h-20.1c-0.7,0-1.2,0.5-1.2,1.2v18c0,0.7,0.5,1.2,1.2,1.2H231c0.7,0,1.2-0.6,1.2-1.2v-18
	C232.2,125.7,231.7,125.1,231,125.1L231,125.1z M224.3,126.6h1.7c0.1,0.4,0.2,1.2,0.3,2h-2C224.3,127.7,224.3,127,224.3,126.6
	L224.3,126.6z M212.5,126.6h9.6c0,0.4,0,1.1,0.1,2h-9.8L212.5,126.6z M229.4,144.1h-17v-13.9h10c0.3,2.7,1.1,5.4,2.1,7.9
	c-1,1.5-2.2,2.8-3.7,3.8c-0.1,0.1,0,0.2,0,0.2l0.4,0.9c0,0,0.1,0.2,0.2,0.1c1.5-0.9,2.8-2,3.9-3.3c0.7,1.3,1.6,2.5,2.7,3.5
	c0.1,0.1,0.1,0.1,0.2,0l0,0l0.7-0.8c0,0,0.1-0.1,0-0.1l0,0c-1.1-1.2-1.9-2.6-2.6-4c0.8-1.1,1.4-2.3,2-3.5c0.1-0.2-0.1-0.3-0.1-0.3
	l-1.4-0.6c-0.1,0-0.2,0-0.2,0.1l0,0c-0.3,0.7-0.7,1.5-1.1,2.2c-0.6-2-1-4-1.2-6h3.6c0,0,0.5,0,0.5-0.6c-0.2-1.1-0.4-2.3-0.5-2.9h1.4
	v17.3H229.4z M221.7,139.8v-1.1c0-0.1,0-0.1-0.1-0.1c0,0,0,0-0.1,0c-2.5,0.7-5.1,1.1-7.8,1.1l0,0c-0.1,0-0.2,0.1-0.2,0.2l0,0v1.7
	c0,0.1,0.1,0.2,0.2,0.2l0,0c2.7-0.2,5.3-0.9,7.8-1.9C221.6,139.9,221.7,139.8,221.7,139.8L221.7,139.8z M214.8,137.5h5.6
	c0.7,0,1.2-0.6,1.2-1.2v-3.5c0-0.7-0.6-1.2-1.2-1.2h-5.7c-0.7,0-1.2,0.5-1.2,1.2l0,0v3.5C213.5,136.9,214,137.5,214.8,137.5
	C214.7,137.5,214.7,137.5,214.8,137.5L214.8,137.5z M216.3,132.8h2.7v3.4h-2.7V132.8z M221.6,138.6c-2.5,0.7-5.1,1.1-7.8,1.1l0,0
	c-0.1,0-0.2,0.1-0.2,0.2l0,0v1.7c0,0.1,0.1,0.2,0.2,0.2l0,0c2.7-0.2,5.3-0.9,7.8-1.9c0.1,0,0.1-0.1,0.1-0.2v-1.1
	C221.7,138.6,221.7,138.6,221.6,138.6C221.6,138.5,221.6,138.5,221.6,138.6L221.6,138.6z M220.4,131.5h-5.7c-0.7,0-1.2,0.5-1.2,1.2
	l0,0v3.5c0,0.7,0.6,1.2,1.2,1.2h5.7c0.7,0,1.2-0.6,1.2-1.2v-3.5C221.7,132,221.1,131.5,220.4,131.5z M218.9,136.2h-2.7v-3.4h2.7
	V136.2z M220.4,131.5h-5.7c-0.7,0-1.2,0.5-1.2,1.2l0,0v3.5c0,0.7,0.6,1.2,1.2,1.2h5.7c0.7,0,1.2-0.6,1.2-1.2v-3.5
	C221.7,132,221.1,131.5,220.4,131.5z M218.9,136.2h-2.7v-3.4h2.7V136.2z M221.7,138.7v1.1c0,0.1-0.1,0.2-0.1,0.2
	c-2.5,1-5.1,1.7-7.8,1.9l0,0c-0.1,0-0.2-0.1-0.2-0.2V140c0-0.1,0.1-0.2,0.2-0.2l0,0l0,0c2.6-0.1,5.2-0.5,7.8-1.1
	C221.6,138.5,221.6,138.5,221.7,138.7C221.7,138.6,221.7,138.7,221.7,138.7L221.7,138.7z"/>
<path class="st1" d="M249.2,136.1h-1.3c-0.2,0-0.3,0.1-0.3,0.3v6.7c0,0.6-0.1,1-1.1,1h-0.6c0,0-0.1,0-0.1,0.1l0,0v1.1
	c0,0.2,0.2,0.4,0.3,0.4l0,0h1.1c2.4,0,3.2-0.3,3.2-2.4v-5.8C250.5,136.7,249.9,136.1,249.2,136.1L249.2,136.1z M260.2,137.8
	c-1.5-0.7-2.9-1.7-4.2-2.8h4.2c0.1,0,0.2-0.1,0.2-0.2v-1.2c0-0.1-0.1-0.2-0.2-0.2h-14.3c0.5-0.6,1-1.3,1.4-2h10.2
	c0.1,0,0.2-0.1,0.2-0.2V130c0-0.1-0.1-0.2-0.2-0.2h-9.2c0.4-0.7,0.7-1.4,1-2h10c0.1,0,0.2-0.1,0.2-0.2v-1.1c0-0.1-0.1-0.2-0.2-0.2
	H250c0.1-0.3,0.2-0.5,0.2-0.6s0.1-0.4-0.2-0.5c-0.6-0.1-1.7-0.3-2-0.4c-0.2-0.1-0.4,0.1-0.5,0.3c0,0,0,0,0,0.1l-0.2,0.6
	c-0.1,0.2-0.1,0.4-0.2,0.6h-8.3c-0.1,0-0.2,0.1-0.2,0.2v1.2c0,0.1,0.1,0.2,0.2,0.2h7.6c-0.3,0.6-0.6,1.3-1,2h-4.8
	c-0.1,0-0.2,0.1-0.2,0.2v1.2c0,0.1,0.1,0.2,0.2,0.2h3.8c-0.4,0.7-0.9,1.3-1.4,2h-5.2c-0.1,0-0.2,0.1-0.2,0.2v1.2
	c0,0.1,0.1,0.2,0.2,0.2h3.8c-1.1,1.2-2.4,2.1-3.8,2.8c-0.2,0-0.3,0.2-0.2,0.4v0.1l0.3,0.7c0.1,0.2,0.2,0.2,0.4,0.2l0,0
	c0.9-0.3,1.7-0.7,2.5-1.2c1.6,0.4,3.1,1,4.6,1.7c0.1,0.1,0.2,0,0.2,0l0,0l0.7-1.4c0.1-0.1,0-0.2,0-0.2l0,0c-1.2-0.5-2.5-0.8-3.8-1.1
	c0.6-0.5,1.2-1.1,1.8-1.7h9c0.6,0.6,1.2,1.1,1.8,1.6c-1.2,0.5-2.5,0.8-3.8,1c-0.1,0-0.2,0.1-0.1,0.2c0.2,0.6,0.2,1,0.4,1.5
	c0.1,0.2,0.1,0.2,0.3,0.1c1.6-0.4,3.2-1.1,4.6-1.9c1,0.6,2,1.1,3.1,1.5c0.1,0.1,0.3,0,0.4-0.1l0,0l0.3-0.7c0.2-0.1,0.2-0.2,0.2-0.4
	C260.4,137.9,260.3,137.8,260.2,137.8L260.2,137.8z M246.8,141.6c-0.1-0.5-0.1-0.4-0.2-0.9c0-0.1-0.1-0.1-0.2-0.1l0,0
	c-2.2,1.1-4.6,1.9-7,2.5c-0.1,0-0.2,0.1-0.2,0.2v0.1c0.2,0.4,0.5,1.2,0.7,1.5c0.1,0.1,0.2,0.2,0.4,0.1c2.2-0.8,4.4-1.8,6.4-3
	C246.8,141.9,246.8,141.7,246.8,141.6L246.8,141.6z M252,140.8c-0.2-0.1-0.2,0.1-0.2,0.1l-0.4,0.9c-0.1,0.1,0,0.2,0.1,0.2l0,0
	c2,0.8,3.9,1.7,5.8,2.8c0.2,0.1,0.4,0.1,0.6-0.1c0.4-0.5,0.5-0.8,0.9-1.3c0.1-0.1,0-0.2-0.1-0.3l0,0
	C256.5,142.1,254.2,141.4,252,140.8L252,140.8z"/>
<linearGradient id="SVGID_1_" gradientUnits="userSpaceOnUse" x1="-406.9598" y1="-991.8895" x2="-426.5673" y2="-967.6804" gradientTransform="matrix(1 0 0 1 589.1 1110.59)">
	<stop  offset="0" style="stop-color:#6DB131"/>
	<stop  offset="0.36" style="stop-color:#45A137"/>
	<stop  offset="0.79" style="stop-color:#1D913E"/>
	<stop  offset="1" style="stop-color:#0E8A41"/>
</linearGradient>
<path class="st2" d="M169,129.2c7.6-3.4,15.4-4.4,21.3-3.2c-0.7-0.3-1.3-0.9-1.7-1.6c-1.1-2-3.4-3.2-5.7-2.9
	c-0.9,0.1-1.9-0.1-2.7-0.6c-1.9-1.4-4.5-1.4-6.5,0c-0.8,0.5-1.7,0.7-2.7,0.6c-2.3-0.3-4.6,0.8-5.7,2.9c-0.5,0.8-1.2,1.4-2.1,1.7
	c-2.1,0.7-3.6,2.6-3.8,4.8c-0.1,0.9-0.6,1.8-1.2,2.4c-1.2,1.2-1.9,2.8-1.9,4.4v0.1C160,134.2,164.3,131.3,169,129.2z"/>
<linearGradient id="SVGID_2_" gradientUnits="userSpaceOnUse" x1="-400.7868" y1="-992.5984" x2="-424.1569" y2="-963.7383" gradientTransform="matrix(1 0 0 1 589.1 1110.59)">
	<stop  offset="0" style="stop-color:#48A839"/>
	<stop  offset="0.22" style="stop-color:#349D3B"/>
	<stop  offset="0.52" style="stop-color:#1E923E"/>
	<stop  offset="0.78" style="stop-color:#148C41"/>
	<stop  offset="1" style="stop-color:#0E8A41"/>
</linearGradient>
<path class="st3" d="M175.7,133.7c5.8-2.7,12.2-4,18.6-3.6c-0.5-1.8-1.8-3.3-3.6-3.9l0,0l-0.4-0.2c-5.9-1.2-13.7-0.2-21.3,3.2
	c-4.7,2.1-9,5-12.6,8.7c0.1,3,2.3,5.6,5.3,6C165.6,139.5,170.4,136,175.7,133.7z"/>
<path class="st4" d="M195.7,133.4c-0.7-0.7-1.1-1.5-1.2-2.4c0-0.3-0.1-0.6-0.1-0.8c-6.4-0.4-12.8,0.8-18.6,3.6
	c-5.4,2.3-10.2,5.8-14.1,10.3c0.3,0,0.6,0.1,0.9,0.1h8.9c0.8,0,1.5,0.7,1.5,1.5v0.4c0,0.8-0.6,1.5-1.4,1.6l-7.2,1.2
	c-0.3,0-0.5,0.2-0.5,0.5v0.9h26.3v-0.9c0-0.3-0.2-0.5-0.5-0.5l-7.2-1.3c-0.8-0.1-1.4-0.8-1.4-1.6v-0.4c0-0.8,0.7-1.5,1.5-1.5h8.9
	c3.4,0,6.2-2.8,6.2-6.2C197.6,136.1,196.9,134.5,195.7,133.4z"/>
<path class="st1" d="M408.9,147.3l-0.4-0.4l5.6-5.6l0.4,0.4L408.9,147.3z"/>
<path class="st1" d="M416.2,142.8v-1.4h0.6c0.1,0,0.2,0,0.2,0.1s0,0.1-0.1,0.1v1.1h1.6v-1.4h0.6c0.1,0,0.2,0,0.2,0.1s0,0.1-0.1,0.1
	v1.1h1.2v0.5H419v1.4h1.5v0.6h-5.7v-0.6h1.4v-1.4h-1.1v-0.5L416.2,142.8z M417.1,145.8l0.1,0.1c0,0-0.1,0.1-0.2,0.1
	c-0.2,0.2-0.4,0.5-0.7,0.7c-0.3,0.2-0.6,0.4-1,0.6l-0.5-0.5c0.3-0.1,0.5-0.2,0.8-0.4c0.2-0.1,0.3-0.2,0.4-0.3
	c0.2-0.2,0.4-0.3,0.5-0.5L417.1,145.8z M418.4,143.3h-1.6v1.4h1.6V143.3z M420.5,146.7l-0.5,0.6c-0.5-0.5-1.1-0.9-1.7-1.3l0.4-0.5
	C419.4,145.9,419.9,146.3,420.5,146.7L420.5,146.7z"/>
<path class="st1" d="M426.8,141.7v5c0,0.3-0.2,0.5-0.5,0.6c-0.2,0.1-0.5,0.1-0.8,0.1l-0.2-0.6h0.6c0.2,0,0.3-0.1,0.3-0.2v-4.3h-4.1
	v5.1h-0.6v-5.6L426.8,141.7L426.8,141.7z M425.7,142.8v0.5h-3.1v-0.5H425.7z M425.5,143.9v2h-2.1v0.4h-0.6v-2.4H425.5z M425,145.4
	v-1h-1.6v1H425z"/>
<path class="st1" d="M433.3,142.5v0.5H431v1.4h2.1v0.5H431v1.5h2.5v0.6h-5.9v-0.6h2.7V145h-2.2v-0.5h2.2v-1.4H428v-0.5h5.3V142.5z
	 M431.3,142l-0.4,0.4c-0.4-0.3-0.7-0.5-1.1-0.8l0.4-0.4C430.5,141.5,430.9,141.8,431.3,142L431.3,142z"/>
<path class="st1" d="M436.1,142.8c0.1,0,0.1,0,0.1,0.1s0,0.1-0.1,0.1l-0.2,1h0.4v0.5h-0.7v0.5v0.1l0.7-0.1v0.5l-0.8,0.2
	c0,0.2-0.1,0.4-0.1,0.6c-0.1,0.4-0.3,0.7-0.6,1l-0.6-0.3c0.3-0.2,0.5-0.5,0.6-0.9c0-0.1,0.1-0.2,0.1-0.3l-0.6,0.1v-0.5l0.8-0.2
	c0-0.1,0-0.2,0-0.3v-0.5h-0.8V144h1.1l0.3-1.3L436.1,142.8z M435.2,143.7l-0.4,0.3c-0.1-0.3-0.3-0.6-0.4-1l0.5-0.2
	C434.9,143.1,435.1,143.4,435.2,143.7z M435.6,141.4c0.1,0,0.1,0,0.1,0.1s0,0.1-0.1,0.1v0.5h0.6v0.5h-1.8V142h0.7v-0.7L435.6,141.4z
	 M436.8,142.9c0-0.4,0-0.9,0-1.5h0.5c0.1,0,0.1,0,0.1,0.1c0,0,0,0.1-0.1,0.1c0,0.5,0,0.9,0,1.3h0.8c0,1.1,0,2.2-0.1,3.3
	c0,0.3-0.1,0.6-0.3,0.9c-0.2,0.2-0.5,0.3-0.7,0.3l-0.2-0.5c0.3,0,0.5-0.1,0.6-0.2c0.1-0.2,0.1-0.4,0.1-0.6c0.1-0.9,0.1-1.8,0.1-2.7
	h-0.3c0,0.5-0.1,1-0.1,1.3c-0.1,0.5-0.1,0.9-0.3,1.4c-0.1,0.4-0.3,0.8-0.5,1.2l-0.5-0.3c0.3-0.4,0.5-0.7,0.6-1.2s0.2-0.9,0.3-1.4
	c0-0.2,0-0.6,0.1-1h-0.5v-0.5L436.8,142.9z M439.5,141.4c0.1,0,0.1,0,0.1,0.1s0,0.1-0.1,0.1v0.4h0.7v0.5h-2V142h0.7v-0.7
	L439.5,141.4z M440.2,142.9c0.1,0,0.1,0,0.1,0.1s0,0.1-0.1,0.1l-0.3,0.9h0.4v0.5h-0.7v0.7h0.6v0.5h-0.6v1.6H439v-1.6h-0.7v-0.5h0.7
	v-0.7h-0.7V144h1.2l0.4-1.3L440.2,142.9z M439.2,143.9l-0.5,0.1c-0.1-0.3-0.2-0.7-0.3-1l0.5-0.1C439,143.2,439.1,143.5,439.2,143.9
	L439.2,143.9z"/>
<rect x="341.5" y="123.9" class="st5" width="63.8" height="22.9"/>
<path class="st6" d="M357.6,126.6c0.1,0.4,0,0.9-0.4,1.1c-0.9,0.5-2,0.8-2.9,1.3c-1.8,0.3-3.5,1-5.2,1.4c-0.7,0.1-1.3-0.1-1.8-0.6
	c0.1-0.4-0.5-0.7-0.1-1.1c0.8-0.1,1.5-0.2,2.3-0.3c0.9-0.6,1.9-1,3-1c0.2-0.3,0.5-0.2,0.7-0.4c0.5-0.4,1.1-0.5,1.5-1
	c0.6-0.4,1.3-0.5,1.9-0.3C357,126,357.5,126.1,357.6,126.6"/>
<path class="st6" d="M370.6,132.7c0.1-0.3,0.1-0.7,0-1.1c0-0.2,0.1-0.4-0.1-0.5c-0.4-0.3-0.7,0.2-1.1,0.2c-0.5,0.3-0.9,0.9-1.5,1
	c-0.5,0.5-1.1,0.9-1.7,1.2c-0.7,0.2-1.5,0.1-2.3-0.1c-0.2-0.3-0.5-0.1-0.8-0.3c-0.5-0.4-1.3-0.4-1.6-1c-0.2-0.4-0.9-0.4-0.8-1
	c0.3-0.2,0.6-0.3,0.9-0.4c1.1-0.1,2.2-0.2,3.4-0.4c0.6-0.2,1.2-0.3,1.8-0.5c0.2-0.2,0.7-0.1,0.9-0.4c0.4-0.1,0.8-0.2,1.2-0.2
	c0.3-0.3,0.8-0.1,1.1-0.4c0.6,0,1.1-0.4,1.8-0.4c0.5-0.5,1.3-0.3,1.9-0.6c0.9-0.3,1.9-1,2.9-0.4h0.4c0.7,0.2,1.6,0.2,1.9,0.9
	c0,0.5-0.2,0.9-0.5,1.3c-0.7,0.5-1.7,0.5-2.4,0.1c-0.8-0.4-1.8-0.4-2.6,0c-0.2,0.3-0.6,0.3-0.7,0.6c0,0.4,0,0.8,0.1,1.1
	c0.3,0.6-0.1,1.3,0.2,1.9c0.2,1,0.3,2,0.4,3c0,1.5,0.1,2.9,0.3,4.4c0.1,0.5,0.3,1,0.4,1.6c0.3,0.4,0,0.8,0.2,1.2c-0.3,0.8,0,2-1,2.5
	c-0.6,0.5-1.4,0.6-2.1,0.2c-0.4-0.1-0.5-0.6-0.8-0.8c0-0.6-0.4-1.1-0.2-1.7c0.4-3.6,0.5-7.2,0.4-10.7"/>
<path class="st6" d="M352.9,130.9c0.3,0.4,0.5,0.8,0.6,1.2c0.3,0.4,0.7,0,1.1-0.1c0.5-0.8,1.4-1.2,2.3-1.2c0.4,0.2,0.9,0.1,1.1,0.6
	c0.1,0.3,0.1,0.6,0,0.9c-0.4,0.7-1.3,1-1.9,1.5c-0.5,0.3-1.2,0.5-1.5,1c0.1,0.9,0.6,1.7,1.3,2.2c0.9,0.9,1.7,2.3,2.9,2.8
	c0.6,0.4,1.1,1.1,2,1.3c0.2,0.2,0.5,0.2,0.7,0.4c0.4,0,0.5,0.6,1,0.4c0.7,0.6,1.5,1,2.4,1.2c0.2,0.2,0.5,0.3,0.6,0.5
	c0.3,0.1,0.4,0.4,0.6,0.6s-0.1,0.4-0.2,0.6c-0.4,0.4-1.1,0.3-1.6,0.5c-1.6,0-3.3,0.5-4.9,0.1l-1.7-1.3c-1.1-1.4-2-2.9-3-4.3
	c-0.1-0.3-0.6-0.4-0.7-0.8c-0.5-0.4-0.7-1-1.4-1.1c-0.3,0.4-0.4,0.9-0.4,1.4c-0.2,0.4-0.1,0.9-0.3,1.3s-0.1,0.7-0.4,0.9
	c0,0.3-0.3,0.4-0.3,0.7c-0.6,1.2-1.5,2.3-2.5,3.1c-0.9,0.2-1.7,0.8-2.6,0.3c-0.6-0.1-1.1-0.4-1.3-1c0.1-0.3-0.2-0.4-0.2-0.6
	c0.2-0.4-0.4-0.8,0.2-1c0-0.2,0.2-0.4,0.4-0.5c0.5-0.1,1,0,1.3,0.3c0.2,0,0.3-0.1,0.4-0.2c0-0.2,0.4-0.3,0.4-0.5
	c0.4-0.4,0.7-0.8,0.9-1.4c0.5-0.6,0.7-1.5,0.4-2.3c-0.6,0-1.2,0.3-1.8,0c-0.4-0.3-1-0.5-1.2-0.9c-0.3-0.3-0.5-0.7-0.6-1.1
	c0.2-0.5,0.8-0.3,1.2-0.4s0.8-0.2,1.1-0.4c0.9-0.2,1.4-1,2.3-1.1c0.5-0.3,1.3-0.8,1.2-1.6c-0.3-0.6,0.2-1.2,0.1-1.8
	c0.1-0.3,0.4-0.5,0.6-0.7c0.3-0.1,0.7,0,1.1-0.1c0.1,0.2,0.4,0.1,0.5,0.2"/>
<path class="st6" d="M380.6,135.5c0.7,0.8,1.5,1.8,1,2.9c0,0.4-0.6,0.3-0.6,0.7c-0.8,0.2-1.6,0.1-2.4-0.1c0-0.3-0.2-0.4-0.5-0.5
	c-1-0.7-1.5-2-1.2-3.2c0.9-0.8,2.2-0.1,3.2,0C380.2,135.4,380.4,135.4,380.6,135.5"/>
<path class="st6" d="M393.2,138.9c0,0.1,0,0.1-0.1,0.1h-1.4l0,0c0,0.4,0,0.8,0,1.2h0.1h1.2c0,0,0.1,0,0.1,0.1s0,0.1,0,0.1H393h-1.1
	c0,0-0.1,0-0.1,0.1v1.2c0,0.1,0.1,0.1,0.1,0.1h1.1c0,0,0.1,0,0.1,0.1s0,0.1-0.1,0.1c-0.4,0-0.8,0-1.3,0v0.1v1.2c0.1,0,0.2,0,0.3,0
	c0.4,0,0.8,0,1.2,0c0,0,0,0.1,0,0.2h-0.1c-1.2,0-2.3,0-3.4,0c-0.2,0-0.4-0.1-0.5-0.3c0-0.4-0.1-0.7-0.1-1.1v-2.9l0,0
	c-0.2,0.2-0.3,0.4-0.5,0.6c-0.1,0-0.2,0-0.2-0.1s0-0.1,0-0.2c0.5-0.7,0.8-1.4,1-2.2c0.1-0.2,0.3-0.2,0.5-0.1c0.1,0,0.2,0.1,0.3,0.2
	v0.1c-0.2,0.3-0.3,0.6-0.5,0.9l0,0h1.3c0.1-0.2,0.2-0.5,0.4-0.7c0.1-0.2,0.2-0.6,0.5-0.6c0.2,0,0.3,0.1,0.4,0.2c0,0.1,0,0.2-0.1,0.3
	c-0.2,0.2-0.5,0.5-0.7,0.7l0,0h1.7"/>
<path class="st6" d="M394.3,139c0,0,0.1-0.1,0.2-0.1c1.2,0,2,0,3.2,0c0.1-0.1,0.3-0.1,0.5-0.1h1.6c0.1-0.1,0-0.3,0.1-0.4
	s-0.1-0.7,0.2-0.8c0.2,0,0.4,0,0.5,0.2v1l0,0c0.7,0,1.3,0,2,0c0,0,0.1,0,0.1,0.1s0,0.1-0.1,0.2c-0.6,0-1.3,0-1.9,0c0,0,0,0-0.1,0
	v0.1c0,0.4,0,0.8,0,1.3v0.1h1.6c0,0,0.1,0.1,0.1,0.2l-0.1,0.1h-1.6H398c-0.1,0-0.1-0.1-0.1-0.2c0-0.1,0.1-0.1,0.2-0.1h1.5
	c0.2-0.1,0-0.3,0.1-0.4V139l-0.1-0.1c-0.6,0-1.3,0-1.9,0h-0.1c-0.1,0.1-0.1,0.1-0.2,0.1h-2.9C394.5,139.1,394.5,139.1,394.3,139"/>
<path class="st6" d="M387.2,137.7c0,0.3,0,0.5,0,0.8l0.1,0.1c0.4,0,0.9,0,1.3,0c0,0,0,0.1,0,0.2c0,0.1-0.1,0.1-0.1,0.1h-2.6h-1
	c-0.1,0-0.1-0.1-0.1-0.1s0-0.1,0.1-0.2c0.5,0,1,0,1.5,0c0,0,0.1,0,0.1-0.1c0.1-0.3-0.2-0.9,0.3-0.9
	C386.9,137.5,387.1,137.5,387.2,137.7"/>
<path class="st6" d="M397.4,137.8C397.5,137.9,397.5,137.9,397.4,137.8c0.1,0.1,0.1,0.2,0,0.3l0,0h-0.2h-2.4l-0.1-0.1
	c0-0.1,0-0.1,0.1-0.1c0.3,0,0.6,0,0.9,0C396.2,137.9,396.8,137.9,397.4,137.8"/>
<path class="st6" d="M386.3,138.9c0.1,0.1,0.1,0.2,0.1,0.3c0,0.2-0.4,0.4-0.2,0.7c0.1,0.2,0.4,0.4,0.4,0.6v0.1
	c-0.1,0.1-0.2,0.1-0.3,0.1c-0.2-0.2-0.3-0.4-0.5-0.5c-0.1,0-0.1,0.1-0.1,0.1c-0.2,0.3-0.4,0.6-0.7,0.8c-0.1,0-0.2-0.1-0.2-0.1v-0.1
	c0.4-0.6,0.7-1.2,1-1.9C386,138.9,386.2,138.9,386.3,138.9"/>
<path class="st6" d="M388.2,139.2c0,0.2-0.2,0.4-0.3,0.6c0.1,0.3,0.3,0.6,0.5,0.9c0,0.1,0,0.1,0,0.2c-0.1,0.1-0.2,0.1-0.3,0.1
	c-0.2-0.1-0.3-0.4-0.5-0.6c-0.2,0.1-0.3,0.6-0.6,0.4c-0.1,0-0.1-0.1-0.1-0.2c0.3-0.5,0.5-0.9,0.6-1.5c0.1-0.1,0.1-0.1,0.2-0.2
	C388,139,388.1,139,388.2,139.2"/>
<path class="st5" d="M390.9,139.2c0,0.4,0,0.8,0,1.1c-0.4,0-0.7,0-1.1,0l0,0v-1.2c0-0.1,0.1-0.1,0.2-0.1
	C390.3,139.1,390.7,139.1,390.9,139.2L390.9,139.2z"/>
<path class="st6" d="M397.4,139.8l0.1,0.1c0,0,0,0.1-0.1,0.2h-2.5l-0.1-0.1c0-0.1,0-0.2,0.1-0.2l0,0H397.4L397.4,139.8z"/>
<path class="st6" d="M397.3,140.8c0.1,0,0.1,0.1,0.1,0.1v0.1c0,0.1-0.1,0.1-0.2,0.1h-2.4c-0.1,0-0.1-0.1-0.1-0.2
	c0-0.1,0.1-0.1,0.2-0.1C395.7,140.8,396.5,140.8,397.3,140.8"/>
<path class="st5" d="M390.9,140.7v1.3c-0.4,0-0.7,0-1.1,0l0,0v-1.2h0.1C390.2,140.7,390.6,140.7,390.9,140.7"/>
<path class="st6" d="M387.1,140.9c0.2,0.2,0,0.4,0.1,0.6h0.1h1.2c0,0,0.1,0,0.1,0.1s0,0.1-0.1,0.2h-1.1c-0.1,0,0,0.1,0,0.1
	c0.3,0.4,0.7,0.7,1.1,1c0,0.1,0,0.2-0.1,0.2h-0.2c-0.4-0.2-0.8-0.5-1.1-0.8l0,0c0,0.5,0,1,0,1.5c-0.1,0.2-0.3,0.2-0.5,0.2
	c-0.1,0-0.2-0.1-0.2-0.2v-0.1c0-0.5,0-1,0.1-1.5c-0.1-0.1-0.1,0.1-0.2,0.1s-0.1,0.1-0.1,0.1c-0.2,0.2-0.4,0.5-0.7,0.7
	c0,0.1-0.1,0.1-0.1,0.1s-0.4,0.4-0.6,0.3v-0.1c0-0.1,0.1-0.1,0.2-0.2c0.4-0.4,0.8-0.9,1.1-1.4v-0.1c-0.4,0-0.9,0-1.3,0
	c0,0-0.1-0.1,0-0.2l0.1-0.1h1.5c0,0,0.1,0,0.1-0.1c0-0.2-0.1-0.6,0.2-0.7s0.4-0.1,0.5,0.1"/>
<path class="st6" d="M399.4,141.1c0.2,0.1,0,0.4,0.1,0.6c0,0.7,0,1.3,0,1.9c0,0.1,0.1,0.1,0.2,0.1h1c0.3-0.1,0.5-0.4,0.5-0.6
	c0.1-0.1,0.2-0.2,0.3-0.2c0.2,0,0.3,0.1,0.4,0.2c0,0.3-0.1,0.6-0.4,0.8c-0.7,0.2-1.5,0.2-2.2,0.1c-0.2,0-0.4-0.1-0.5-0.3v-0.1
	c0-0.7,0-1.6,0-2.3c0-0.1,0.1-0.1,0.2-0.2C399.2,141,399.3,141,399.4,141.1"/>
<path class="st6" d="M400.7,141.5c0.2,0.2,0.4,0.5,0.5,0.8c0,0.1,0,0.2-0.1,0.2c-0.1,0.1-0.3,0.1-0.4,0.1c-0.4-0.1-0.3-0.6-0.5-0.8
	s-0.3-0.4-0.3-0.7c0.1-0.1,0.2-0.1,0.3-0.1C400.4,141.2,400.6,141.3,400.7,141.5"/>
<path class="st6" d="M402.2,141.7c0.2,0.3,0.4,0.5,0.6,0.8c0,0.1,0,0.2-0.1,0.3s-0.3,0.2-0.5,0.1c-0.2-0.1-0.2-0.4-0.3-0.6
	c-0.1-0.3-0.3-0.5-0.5-0.8c0-0.1,0-0.1,0-0.2c0.1,0,0.2,0,0.3,0C401.9,141.4,402,141.7,402.2,141.7"/>
<path class="st6" d="M398.3,141.6c0,0.3,0,0.7-0.1,1s0,0.7-0.4,0.9c-0.1,0-0.3,0-0.4-0.1c0,0.2-0.1,0.3-0.3,0.4l-0.3,0.1
	c-0.6,0-1.2,0-1.8,0c-0.1,0-0.2-0.1-0.3-0.2v-0.1V142c0-0.1,0.1-0.2,0.2-0.3c0.2-0.1,0.4-0.1,0.6-0.1h1.4c0.7,0.1,0.3,0.9,0.5,1.3
	l0.1-0.1c0.2-0.4,0.3-0.8,0.3-1.2c0-0.1,0.1-0.1,0.2-0.1C398.2,141.5,398.3,141.5,398.3,141.6"/>
<path class="st5" d="M396.7,142v1.6h-0.1h-1.2l0,0c0-0.5,0-1.1,0-1.6c0-0.1,0.1,0,0.1-0.1L396.7,142L396.7,142z"/>
<path class="st5" d="M390.9,142.3L390.9,142.3c0,0.4,0,0.8,0,1.2l0,0h-1l0,0c0-0.4,0-0.8,0-1.2c0,0,0-0.1,0.1-0.1
	C390.3,142.2,390.6,142.2,390.9,142.3"/>
<rect x="341.5" y="132.8" class="st6" width="8" height="0.3"/>
<rect x="358.2" y="132.8" class="st6" width="3.6" height="0.3"/>
<polygon class="st6" points="368.2,133.1 370.5,133.1 370.5,132.8 368.2,132.8 "/>
<polygon class="st6" points="373.4,133.2 405.2,133.2 405.2,132.8 373.4,132.8 "/>
<rect x="341.4" y="139.1" class="st6" width="5.4" height="0.3"/>
<rect x="352.3" y="139.1" class="st6" width="1.4" height="0.3"/>
<polygon class="st6" points="358.7,139.4 369.9,139.4 369.9,139.1 358.7,139.1 "/>
<rect x="373.9" y="139.1" class="st6" width="4.5" height="0.3"/>
<rect x="381.5" y="139.1" class="st6" width="2.6" height="0.3"/>
<polygon class="st6" points="403,139.4 405.2,139.4 405.2,139.1 403,139.1 "/>
<rect x="341.5" y="141.6" class="st6" width="5.4" height="0.3"/>
<polygon class="st6" points="351.6,142 355.2,142 355.2,141.6 351.6,141.6 "/>
<rect x="362.9" y="141.6" class="st6" width="6.8" height="0.3"/>
<polygon class="st6" points="374.3,142 384.1,142 384.1,141.6 374.3,141.6 "/>
<rect x="403" y="141.6" class="st6" width="2.2" height="0.3"/>
<rect x="341.5" y="143" class="st6" width="2.4" height="0.3"/>
<rect x="351" y="143" class="st6" width="5.1" height="0.3"/>
<rect x="365.7" y="143" class="st6" width="3.8" height="0.3"/>
<rect x="374.7" y="143" class="st6" width="9.4" height="0.3"/>
<rect x="402.9" y="143" class="st6" width="2.3" height="0.3"/>
<rect x="341.5" y="145.3" class="st6" width="2.5" height="0.3"/>
<rect x="349.3" y="145.3" class="st6" width="8.8" height="0.3"/>
<polygon class="st6" points="366.2,145.6 369.6,145.6 369.6,145.3 366.2,145.3 "/>
<polygon class="st6" points="374.6,145.6 405.2,145.6 405.2,145.3 374.6,145.3 "/>
</svg>
